M48
;GenerationSoftware,Autodesk,EAGLE,9.6.1*%
;CreationDate,2024-12-23T11:51:53Z*%
FMAT,2
ICI,OFF
METRIC,TZ,000.000
T5C0.250
T4C0.350
T3C1.016
T2C1.020
T1C3.000
%
G90
M71
T1
X-476Y68263
T2
X-5239Y38735
X-5239Y41275
T3
X-476Y27622
X-476Y25082
X-476Y22542
X-476Y20003
X-476Y44450
X-476Y41910
X7937Y39053
X-476Y37783
X-476Y35243
X-476Y32702
X-476Y30162
X-476Y46990
X-476Y49530
X-476Y52070
X-476Y54610
X-476Y57150
X-476Y59690
X10478Y39053
X5398Y39053
X3810Y65723
X6350Y65723
X8890Y65723
X3810Y63182
X6350Y63182
X8890Y63182
T4
X-5874Y62321
X6667Y17463
X6667Y15490
X6826Y3969
X6826Y1520
X4128Y77788
X4128Y75656
X-5874Y64929
X11941Y62408
X11941Y64698
X1429Y45720
X3401Y45720
X4763Y41595
X7779Y49212
X7779Y47399
X9208Y32385
X9208Y30413
T5
X-6483Y2365
X-7079Y64229
X-6617Y16130
X13691Y63967
X13175Y16150
X13015Y76387
X-6444Y76344
X13176Y31009
X-6486Y30926
X13017Y47307
X-6567Y48031
X13017Y2540
M30