G04 EAGLE Gerber RS-274X export*
G75*
%MOMM*%
%FSLAX34Y34*%
%LPD*%
%IN*%
%IPPOS*%
%AMOC8*
5,1,8,0,0,1.08239X$1,22.5*%
G01*
%ADD10C,0.254000*%


D10*
X-139863Y94806D02*
X-53009Y-54179D01*
X119684Y-54179D01*
X206538Y94806D01*
X119938Y244806D01*
X206538Y395770D01*
X119938Y545770D01*
X206538Y695770D01*
X119938Y845770D01*
X-53263Y845770D01*
X-139863Y695770D01*
X-53263Y545770D01*
X-139863Y395770D01*
X-53263Y244806D01*
X-139863Y94806D01*
X10238Y682089D02*
X10161Y681021D01*
X10009Y679960D01*
X9781Y678913D01*
X9479Y677885D01*
X9105Y676881D01*
X8659Y675906D01*
X8146Y674966D01*
X7567Y674065D01*
X6925Y673207D01*
X6223Y672397D01*
X5465Y671640D01*
X4656Y670938D01*
X3798Y670296D01*
X2896Y669717D01*
X1956Y669203D01*
X981Y668758D01*
X-23Y668384D01*
X-1051Y668082D01*
X-2098Y667854D01*
X-3158Y667701D01*
X-4227Y667625D01*
X-5298Y667625D01*
X-6367Y667701D01*
X-7428Y667854D01*
X-8474Y668082D01*
X-9503Y668384D01*
X-10506Y668758D01*
X-11481Y669203D01*
X-12421Y669717D01*
X-13323Y670296D01*
X-14181Y670938D01*
X-14990Y671640D01*
X-15748Y672397D01*
X-16450Y673207D01*
X-17092Y674065D01*
X-17671Y674966D01*
X-18184Y675906D01*
X-18630Y676881D01*
X-19004Y677885D01*
X-19306Y678913D01*
X-19534Y679960D01*
X-19686Y681021D01*
X-19763Y682089D01*
X-19763Y683161D01*
X-19686Y684229D01*
X-19534Y685290D01*
X-19306Y686337D01*
X-19004Y687365D01*
X-18630Y688369D01*
X-18184Y689344D01*
X-17671Y690284D01*
X-17092Y691185D01*
X-16450Y692043D01*
X-15748Y692853D01*
X-14990Y693610D01*
X-14181Y694312D01*
X-13323Y694954D01*
X-12421Y695533D01*
X-11481Y696047D01*
X-10506Y696492D01*
X-9503Y696866D01*
X-8474Y697168D01*
X-7428Y697396D01*
X-6367Y697549D01*
X-5298Y697625D01*
X-4227Y697625D01*
X-3158Y697549D01*
X-2098Y697396D01*
X-1051Y697168D01*
X-23Y696866D01*
X981Y696492D01*
X1956Y696047D01*
X2896Y695533D01*
X3798Y694954D01*
X4656Y694312D01*
X5465Y693610D01*
X6223Y692853D01*
X6925Y692043D01*
X7567Y691185D01*
X8146Y690284D01*
X8659Y689344D01*
X9105Y688369D01*
X9479Y687365D01*
X9781Y686337D01*
X10009Y685290D01*
X10161Y684229D01*
X10238Y683161D01*
X10238Y682089D01*
M02*
